<svg xmlns="http://www.w3.org/2000/svg" xmlns:xlink="http://www.w3.org/1999/xlink" width="100.177" height="78.536" viewBox="0 0 100.177 78.536"><defs><style>.a{fill:none;}.b{mix-blend-mode:multiply;isolation:isolate;}.c{fill:#fabe00;}.d{fill:#fff;}.e{clip-path:url(#a);}.f{fill:#231815;}</style><clipPath id="a"><rect class="a" width="100.177" height="78.536"/></clipPath></defs><g class="b" transform="translate(50.088 39.268)"><g transform="translate(-50.088 -39.268)"><rect class="c" width="12.701" height="32.192" transform="translate(12.371 46.185)"/><rect class="d" width="12.701" height="43.111" transform="translate(35.683 35.243)"/><rect class="d" width="12.701" height="52.145" transform="translate(84.067 26.226)"/><rect class="c" width="12.701" height="25.523" transform="translate(59.325 52.837)"/><g class="e"><path class="f" d="M32.6,113.494a2.364,2.364,0,0,0,2.364-2.364V81.164A2.364,2.364,0,0,0,32.6,78.8H20.664A2.364,2.364,0,0,0,18.3,81.164v29.965a2.392,2.392,0,1,0,4.783,0v-27.6h7.148v27.6a2.364,2.364,0,0,0,2.364,2.364" transform="translate(-8.238 -35.474)"/><path class="f" d="M119.5,119.931a2.364,2.364,0,0,0,2.364-2.364v-23.2A2.364,2.364,0,0,0,119.5,92H107.564a2.364,2.364,0,0,0-2.364,2.364v23.2a2.392,2.392,0,1,0,4.783,0V96.728h7.2v20.838a2.364,2.364,0,0,0,2.364,2.364" transform="translate(-47.359 -41.417)"/><path class="f" d="M76.95,105.57a2.364,2.364,0,0,0,2.364-2.364V62.464A2.364,2.364,0,0,0,76.95,60.1H64.964A2.364,2.364,0,0,0,62.6,62.464v40.742a2.392,2.392,0,1,0,4.783,0V64.828h7.148v38.377A2.364,2.364,0,0,0,76.9,105.57" transform="translate(-28.181 -27.056)"/><path class="f" d="M163.85,98.817a2.364,2.364,0,0,0,2.364-2.364V47.464A2.364,2.364,0,0,0,163.85,45.1H151.864a2.364,2.364,0,0,0-2.364,2.364V96.453a2.392,2.392,0,1,0,4.783,0V49.828h7.2V96.453a2.364,2.364,0,0,0,2.364,2.364" transform="translate(-67.302 -20.303)"/><path class="f" d="M1.8,41.181A1.759,1.759,0,0,0,2.9,40.8L45.837,8.467,68.71,25.622a1.759,1.759,0,0,0,2.144,0L96.2,6.708l-1.43,7.807,2.914.55,2.474-13.526L86.469,0l-.33,2.969L94,3.849,69.754,21.938,46.882,4.783a1.814,1.814,0,0,0-2.144,0L.7,37.937a1.759,1.759,0,0,0,1.1,3.189" transform="translate(0.018)"/></g></g></g></svg>