<svg xmlns="http://www.w3.org/2000/svg" xmlns:xlink="http://www.w3.org/1999/xlink" width="82.226" height="73.221" viewBox="0 0 82.226 73.221"><defs><style>.a,.e,.g,.h{fill:none;}.b{mix-blend-mode:multiply;isolation:isolate;}.c{clip-path:url(#a);}.d{fill:#fff;}.e,.g{stroke:#231815;}.e,.g,.h{stroke-linecap:round;stroke-linejoin:round;}.e{stroke-width:3.242px;}.f{fill:#231815;}.g{stroke-width:3.242px;}.h{stroke:#fabe00;stroke-width:3.242px;}</style><clipPath id="a"><rect class="a" width="82.226" height="73.221"/></clipPath></defs><g class="b" transform="translate(41.113 36.611)"><g class="c" transform="translate(-41.113 -36.611)"><path class="d" d="M99.271,64.286c0,17.049-14.084,30.886-31.435,30.886S36.4,81.363,36.4,64.286,50.457,33.4,67.835,33.4,99.271,47.237,99.271,64.286" transform="translate(-26.407 -24.23)"/><path class="d" d="M22.893,122.872a9.6,9.6,0,0,1-9.746,9.472,9.476,9.476,0,1,1,0-18.944,9.6,9.6,0,0,1,9.746,9.472" transform="translate(-2.467 -82.267)"/><path class="d" d="M241.893,122.872a9.75,9.75,0,1,1-9.746-9.472,9.6,9.6,0,0,1,9.746,9.472" transform="translate(-161.341 -82.267)"/><path class="e" d="M30.005,45.784A31.463,31.463,0,0,0,15.18,64.591,7.137,7.137,0,0,0,14,64.481c-4.475,0-8.1,4.146-8.1,9.252s3.624,9.252,8.1,9.252a7.138,7.138,0,0,0,1.537-.165,31.38,31.38,0,0,0,59.714,0,7.139,7.139,0,0,0,1.537.165c4.475,0,8.1-4.146,8.1-9.252s-3.624-9.252-8.1-9.252a7.137,7.137,0,0,0-1.181.11A31.463,31.463,0,0,0,60.1,45.4" transform="translate(-4.28 -32.936)"/><path class="f" d="M94.644,136.522a1.922,1.922,0,1,1-1.922-1.922,1.922,1.922,0,0,1,1.922,1.922" transform="translate(-65.871 -97.646)"/><path class="f" d="M193.144,136.522a1.922,1.922,0,1,1-1.922-1.922,1.922,1.922,0,0,1,1.922,1.922" transform="translate(-137.329 -97.646)"/><path class="g" d="M138.829,191.1c-.329,1.812-2.828,3.706-6.315,3.706A6.573,6.573,0,0,1,126.2,191.1" transform="translate(-91.552 -138.634)"/><path class="h" d="M128.475,5.9c-8.374,0-13.4,6.836-13.48,11.97-.137,7.934,6.919,13.288,13.48,9.774,5.3-2.828,6.2-9.582,1.318-11.311a4.346,4.346,0,0,0-6.04,3.047" transform="translate(-83.422 -4.28)"/></g></g></svg>