<svg xmlns="http://www.w3.org/2000/svg" xmlns:xlink="http://www.w3.org/1999/xlink" width="83.26" height="83.276" viewBox="0 0 83.26 83.276"><defs><style>.a{fill:none;}.b{mix-blend-mode:multiply;isolation:isolate;}.c{clip-path:url(#a);}.d{fill:#fabe00;}</style><clipPath id="a"><rect class="a" width="83.26" height="83.276"/></clipPath></defs><g class="b" transform="translate(41.63 41.638)"><g class="c" transform="translate(-41.63 -41.638)"><path class="d" d="M80.158,43.079A39.779,39.779,0,1,1,40.379,3.3,39.779,39.779,0,0,1,80.158,43.079" transform="translate(-0.127 -0.701)"/><path d="M77.032,19.93C69.076,7.248,54.818-.472,40.8.159a2.248,2.248,0,1,0,.236,4.49c12.446-.63,25.128,6.3,32.217,17.645s7.247,28.988-.788,40.173a42.3,42.3,0,0,1-7.562,8.35,39.936,39.936,0,0,1-10.634,5.75,35.368,35.368,0,0,1-20.638,1.339,38.283,38.283,0,0,1-17.566-9.137A36.865,36.865,0,0,1,5.272,49.311C2.042,34.581,8.9,18.2,21.577,10.4L23.94,9.06l-2.048,4.884a1.654,1.654,0,0,0,.866,2.127l.63.158a1.654,1.654,0,0,0,1.5-1.024L28.9,5.515a1.575,1.575,0,0,0-.945-2.127L17.954.08A1.654,1.654,0,0,0,15.906,1.1,1.654,1.654,0,0,0,16.93,3.152l5.356,1.733L19.214,6.618C4.957,15.361-2.763,33.794.86,50.257A41.355,41.355,0,0,0,12.991,72.076,43.009,43.009,0,0,0,41.9,83.34a37.731,37.731,0,0,0,14.021-2.678A45.8,45.8,0,0,0,67.658,74.2a46.632,46.632,0,0,0,8.428-9.137c9.216-12.84,9.61-31.351.945-45.136" transform="translate(0.006 -0.001)"/><path d="M33.332,41.087a2.206,2.206,0,0,0,.079,3.151L45.7,55.738a2.206,2.206,0,0,0,2.915.158l22.528-17.96a2.214,2.214,0,0,0-2.757-3.466L47.353,51.17,36.562,41.008a2.206,2.206,0,0,0-3.151.079" transform="translate(-6.944 -7.216)"/></g></g></svg>