<svg xmlns="http://www.w3.org/2000/svg" xmlns:xlink="http://www.w3.org/1999/xlink" width="90.906" height="92.753" viewBox="0 0 90.906 92.753"><defs><style>.a,.e,.g,.h,.i{fill:none;}.b{mix-blend-mode:multiply;isolation:isolate;}.c{clip-path:url(#a);}.d{fill:#fabe00;}.e,.g,.h,.i{stroke:#231815;stroke-linecap:round;stroke-linejoin:round;}.e{stroke-width:3.46px;}.f{fill:#fff;}.g{stroke-width:2.308px;}.h{stroke-width:3.46px;}.i{stroke-width:2.308px;}</style><clipPath id="a"><rect class="a" width="90.906" height="92.753"/></clipPath></defs><g class="b" transform="translate(45.453 46.376)"><g class="c" transform="translate(-45.453 -46.376)"><path class="d" d="M56.094,103q.1-1.12.1-2.239c0-.746-.032-1.525-.1-2.239l-5.452-1.882a20.09,20.09,0,0,0-1.363-4.154l3.31-4.8a25.541,25.541,0,0,0-2.661-3.635l-5.517,1.688a20.35,20.35,0,0,0-3.538-2.564l-.1-5.777A25.186,25.186,0,0,0,36.459,76l-3.505,4.609a20.09,20.09,0,0,0-4.381,0L25.1,76a25.217,25.217,0,0,0-4.284,1.4l-.1,5.777a20.317,20.317,0,0,0-3.538,2.564l-5.517-1.688A25.51,25.51,0,0,0,9,87.684l3.31,4.738a20.122,20.122,0,0,0-1.363,4.154L5.5,98.491q-.1,1.12-.1,2.239c0,.746.032,1.525.1,2.239l5.452,1.882a20.122,20.122,0,0,0,1.363,4.154L9,113.81a25.509,25.509,0,0,0,2.661,3.635l5.517-1.688a20.317,20.317,0,0,0,3.538,2.564l.1,5.777a25.218,25.218,0,0,0,4.284,1.4l3.505-4.609a20.154,20.154,0,0,0,4.381,0l3.505,4.609a25.217,25.217,0,0,0,4.284-1.4l.1-5.777a20.317,20.317,0,0,0,3.538-2.564l5.517,1.688a25.476,25.476,0,0,0,2.661-3.635l-3.31-4.738a20.09,20.09,0,0,0,1.363-4.154ZM30.78,109.331a8.6,8.6,0,1,1,8.6-8.6,8.6,8.6,0,0,1-8.6,8.6" transform="translate(-3.647 -51.334)"/><path class="e" d="M56.094,103q.1-1.12.1-2.239c0-.746-.032-1.525-.1-2.239l-5.452-1.882a20.09,20.09,0,0,0-1.363-4.154l3.31-4.8a25.541,25.541,0,0,0-2.661-3.635l-5.517,1.688a20.35,20.35,0,0,0-3.538-2.564l-.1-5.777A25.186,25.186,0,0,0,36.459,76l-3.505,4.609a20.09,20.09,0,0,0-4.381,0L25.1,76a25.217,25.217,0,0,0-4.284,1.4l-.1,5.777a20.317,20.317,0,0,0-3.538,2.564l-5.517-1.688A25.51,25.51,0,0,0,9,87.684l3.31,4.738a20.122,20.122,0,0,0-1.363,4.154L5.5,98.491q-.1,1.12-.1,2.239c0,.746.032,1.525.1,2.239l5.452,1.882a20.122,20.122,0,0,0,1.363,4.154L9,113.81a25.509,25.509,0,0,0,2.661,3.635l5.517-1.688a20.317,20.317,0,0,0,3.538,2.564l.1,5.777a25.218,25.218,0,0,0,4.284,1.4l3.505-4.609a20.154,20.154,0,0,0,4.381,0l3.505,4.609a25.217,25.217,0,0,0,4.284-1.4l.1-5.777a20.317,20.317,0,0,0,3.538-2.564l5.517,1.688a25.476,25.476,0,0,0,2.661-3.635l-3.31-4.738a20.09,20.09,0,0,0,1.363-4.154ZM30.78,109.331a8.6,8.6,0,1,1,8.6-8.6,8.6,8.6,0,0,1-8.6,8.6Z" transform="translate(-3.647 -51.334)"/><path class="d" d="M183.061,9.209l-.454-3.667a12.073,12.073,0,0,0-5.063,0l-.454,3.667c-.292.065-6.556,3.667-6.751,3.895l-3.408-1.428a11.976,11.976,0,0,0-2.531,4.381l2.953,2.239c-.1.292-.1,7.5,0,7.822L164.4,28.357a12.073,12.073,0,0,0,2.5,4.414l3.408-1.428c.227.227,6.459,3.83,6.751,3.895l.454,3.667a12.073,12.073,0,0,0,5.063,0l.454-3.667c.292-.065,6.556-3.667,6.751-3.895l3.408,1.428a11.976,11.976,0,0,0,2.531-4.381l-2.888-2.272c.1-.292.1-7.5,0-7.822l2.953-2.239a12.073,12.073,0,0,0-2.531-4.381L189.845,13.1c-.227-.227-6.459-3.83-6.751-3.895" transform="translate(-111.044 -3.562)"/><path class="e" d="M183.061,9.209l-.454-3.667a12.073,12.073,0,0,0-5.063,0l-.454,3.667c-.292.065-6.556,3.667-6.751,3.895l-3.408-1.428a11.976,11.976,0,0,0-2.531,4.381l2.953,2.239c-.1.292-.1,7.5,0,7.822L164.4,28.357a12.073,12.073,0,0,0,2.5,4.414l3.408-1.428c.227.227,6.459,3.83,6.751,3.895l.454,3.667a12.073,12.073,0,0,0,5.063,0l.454-3.667c.292-.065,6.556-3.667,6.751-3.895l3.408,1.428a11.976,11.976,0,0,0,2.531-4.381l-2.888-2.272c.1-.292.1-7.5,0-7.822l2.953-2.239a12.073,12.073,0,0,0-2.531-4.381L189.845,13.1C189.617,12.909,183.386,9.306,183.061,9.209Z" transform="translate(-111.044 -3.562)"/><path class="f" d="M207.131,50.3a4.576,4.576,0,1,1,.458-3.483,4.576,4.576,0,0,1-.458,3.483" transform="translate(-134.141 -29.338)"/><path class="g" d="M207.131,50.3a4.576,4.576,0,1,1,.458-3.483A4.576,4.576,0,0,1,207.131,50.3Z" transform="translate(-134.141 -29.338)"/><path class="h" d="M196.762,180.009l-.454-3.667a12.072,12.072,0,0,0-5.063,0l-.454,3.667c-.292.065-6.556,3.667-6.751,3.895l-3.408-1.428a11.976,11.976,0,0,0-2.531,4.381l2.953,2.239c-.1.292-.1,7.5,0,7.822l-2.953,2.239a12.073,12.073,0,0,0,2.531,4.381l3.408-1.428c.227.227,6.458,3.83,6.751,3.895l.454,3.667a12.073,12.073,0,0,0,5.063,0l.454-3.667c.292-.065,6.556-3.667,6.751-3.895l3.408,1.428a11.976,11.976,0,0,0,2.531-4.381l-2.953-2.239c.1-.292.1-7.5,0-7.822l2.953-2.239a12.073,12.073,0,0,0-2.531-4.381l-3.408,1.428C203.317,183.676,197.086,180.074,196.762,180.009Z" transform="translate(-120.298 -118.929)"/><path class="i" d="M220.832,221a4.576,4.576,0,1,1,.458-3.483,4.576,4.576,0,0,1-.458,3.483Z" transform="translate(-143.394 -144.638)"/></g></g></svg>