<svg xmlns="http://www.w3.org/2000/svg" xmlns:xlink="http://www.w3.org/1999/xlink" width="80.63" height="83.966" viewBox="0 0 80.63 83.966"><defs><style>.a,.e{fill:none;}.b{mix-blend-mode:multiply;isolation:isolate;}.c{clip-path:url(#a);}.d{fill:#fabe00;}.e{stroke:#231815;stroke-linecap:round;stroke-linejoin:round;stroke-width:3.578px;}.f{fill:#fff;}</style><clipPath id="a"><rect class="a" width="80.63" height="83.966"/></clipPath></defs><g class="b" transform="translate(40.315 41.983)"><g class="c" transform="translate(-40.315 -41.983)"><path class="d" d="M72.831,61.583H14.449A9.349,9.349,0,0,1,5.1,52.234V14.449A9.349,9.349,0,0,1,14.449,5.1H72.831a9.349,9.349,0,0,1,9.349,9.349V52.234a9.349,9.349,0,0,1-9.349,9.349" transform="translate(-3.307 -3.307)"/><rect class="e" width="77.08" height="56.476" rx="9.349" transform="translate(1.793 1.793)"/><path class="f" d="M103.418,131.193c-2.742-3.374-4.007-11.318-7.522-15.641-2.285-2.812-2.285-6.889-.176-7.451,4.5-1.16,9.49,4.85,9.49,4.85V85.359c0-5.132,8.857-5.272,8.787-.176-.07,5.9,0,16.344,0,16.344,3.093-.879,5.518-.422,7.381,1.828a6.3,6.3,0,0,1,7.311,1.617c3.023-.914,6.854,1.863,6.854,6.221v14.059c0,4.007-2.6,7.205-4.112,8.752a3.269,3.269,0,0,1-2.32.984H110.2a4.393,4.393,0,0,1-2.214-.6,21.78,21.78,0,0,1-4.534-3.2" transform="translate(-61.065 -52.812)"/><path class="e" d="M103.418,131.193c-2.742-3.374-4.007-11.318-7.522-15.641-2.285-2.812-2.285-6.889-.176-7.451,4.5-1.16,9.49,4.85,9.49,4.85V85.359c0-5.132,8.857-5.272,8.787-.176-.07,5.9,0,16.344,0,16.344,3.093-.879,5.518-.422,7.381,1.828a6.3,6.3,0,0,1,7.311,1.617c3.023-.914,6.854,1.863,6.854,6.221v14.059c0,4.007-2.6,7.205-4.112,8.752a3.269,3.269,0,0,1-2.32.984H110.2a4.393,4.393,0,0,1-2.214-.6A22.088,22.088,0,0,1,103.418,131.193Z" transform="translate(-61.065 -52.812)"/></g></g></svg>