<svg xmlns="http://www.w3.org/2000/svg" xmlns:xlink="http://www.w3.org/1999/xlink" width="84.603" height="81.373" viewBox="0 0 84.603 81.373"><defs><style>.a{fill:none;}.b{clip-path:url(#a);}.c{fill:#fff;}.d{fill:#fabe00;}</style><clipPath id="a"><rect class="a" width="84.603" height="81.373"/></clipPath></defs><g transform="translate(42.301 40.687)"><g class="b" transform="translate(-42.301 -40.687)"><path class="c" d="M42.4,57.923h7.327a1.832,1.832,0,0,1,1.9,1.832v2.917a2.849,2.849,0,0,0,2.714,2.985H76.322A2.849,2.849,0,0,0,79.1,62.672V59.755a1.832,1.832,0,0,1,1.832-1.832h4.953V27.8H42.4Zm5.36-21.643h32.7v2.646H47.76Zm0,7.734h32.7v2.646H47.76Zm0,7.734h32.7V54.4H47.76Z" transform="translate(-13.634 -8.939)"/><path class="c" d="M30.2,52.915,31.218,54h3.528V20.146H73.689V15.6H30.2Z" transform="translate(-9.711 -5.016)"/><path class="c" d="M12.971,51.349V48.5H12.7v2.51Z" transform="translate(-4.084 -15.595)"/><path class="c" d="M22.739,8.621h39.35V5.5H18.6V41.39l4.139,4.342Z" transform="translate(-5.981 -1.769)"/><path class="d" d="M79.877,78.786a6.581,6.581,0,0,1-6.513,6.649H51.382a6.581,6.581,0,0,1-6.445-6.649V77.7H33.2v24.967H91.547V77.7H79.877Z" transform="translate(-10.675 -24.984)"/><path class="d" d="M5.5,75.871,20.629,91.814V68.476L5.5,52.6Z" transform="translate(-1.769 -16.914)"/><rect width="32.769" height="2.646" transform="translate(34.126 27.342)"/><rect width="32.769" height="2.653" transform="translate(34.126 35.076)"/><rect width="32.769" height="2.646" transform="translate(34.126 42.81)"/><path d="M84.6,50.816V50l-.136-.2H84.4l-.136-.2-8.277-7.87v-26.6H67.641V6.852h-7.87V0H8.887V29.173H1.628l-.407.136-.475.271H.61l-.339.339-.2.407v.2A1.764,1.764,0,0,0,0,31.005V59.7a1.832,1.832,0,0,0,.475,1.289L19.335,80.8l.2.2h.136l.339.2.746.136H82.77A1.832,1.832,0,0,0,84.6,79.514s0-28.7,0-28.7M12.619,3.731H56.107V6.92H16.757V43.964l-4.139-4.342ZM72.254,48.984H67.3a1.832,1.832,0,0,0-1.832,1.832v2.917a2.849,2.849,0,0,1-2.782,2.985H40.707A2.849,2.849,0,0,1,37.993,53.8V50.816a1.832,1.832,0,0,0-1.832-1.832h-7.4V18.861H72.254ZM63.977,15.129H25.034V48.984H21.506L20.489,47.9V10.584H63.977ZM3.731,35.686,18.86,51.562V74.833L3.731,58.957Zm77.14,42H22.524V52.716H34.261V53.8a6.581,6.581,0,0,0,6.445,6.649H62.688A6.581,6.581,0,0,0,69.2,53.8V52.716H80.871Z" transform="translate(0)"/></g></g></svg>