<svg xmlns="http://www.w3.org/2000/svg" width="151.846" height="42.665" viewBox="0 0 151.846 42.665"><defs><style>.a{fill:#1070c3;}.b{fill:#b30e6e;}</style></defs><g transform="translate(2936.3 2793.907)"><path class="a" d="M198.862,214.563a38.369,38.369,0,0,0-2.705,3.508A8.226,8.226,0,0,0,194.594,222a16.324,16.324,0,0,0,1.23,8.222,16.819,16.819,0,0,0,8.043,8.924c1.171-1.175,2.253-2.469,3.3-3.722l.4-.477a19.814,19.814,0,0,1-9.17-11.75,13.145,13.145,0,0,1,.465-8.631Zm10.51-12.628c-2.279,2.632-4.339,5.613-3.9,9.293a17.807,17.807,0,0,0,10.44,14.2c1.307-1.408,2.555-2.86,3.716-4.321a19.933,19.933,0,0,1-7.565-6.253c-3.223-4.459-4.151-9.109-2.693-12.923Zm-5.109,6.126A21.368,21.368,0,0,0,201,212.545c-1.221,2.334-1.291,5.17-.219,8.927a16.175,16.175,0,0,0,3.439,6.417c1.495,1.716,3.284,3.606,5.663,4.421.862-.864,1.659-1.812,2.432-2.731.42-.5.84-1,1.272-1.488a19.513,19.513,0,0,1-7.967-7.778,16.214,16.214,0,0,1-2.259-9.491,7.922,7.922,0,0,1,.906-2.761Zm13.795-10.9a8.071,8.071,0,0,0-6.4,3.533,7.719,7.719,0,0,0-.647,7.224l8.515-10.554a5.153,5.153,0,0,0-1.472-.2Z" transform="translate(-3130.48 -2990.755)"/><path class="b" d="M195.562,229.171a16.674,16.674,0,0,1-1.251-8.377,8.509,8.509,0,0,1,1.618-4.066,27.69,27.69,0,0,1,4.183-4.987c-4.947,7.685.563,18.07,7.956,21.946-1.337,1.589-2.636,3.2-4.114,4.66A17.137,17.137,0,0,1,195.562,229.171Z" transform="translate(-3130.502 -2989.589)"/><path class="a" d="M204.383,211.073c-.573-4.773,2.839-8.3,5.751-11.519-3.4,4.6-1.813,10.492,1.4,14.932a19.766,19.766,0,0,0,7.8,6.323q-1.957,2.49-4.115,4.8A18.116,18.116,0,0,1,204.383,211.073Z" transform="translate(-3129.693 -2990.564)"/><path class="a" d="M200.094,220.887c-.878-3.076-1.243-6.317.242-9.153a28.321,28.321,0,0,1,4.858-6.213c-.731,1.541-1.738,2.926-1.917,4.663a15.919,15.919,0,0,0,2.222,9.309,19.162,19.162,0,0,0,8.192,7.836c-1.387,1.538-2.632,3.2-4.115,4.663-2.475-.784-4.307-2.652-5.978-4.572A16.487,16.487,0,0,1,200.094,220.887Z" transform="translate(-3130.093 -2990.086)"/><path class="a" d="M218.884,197.235c-4.39-1.786-12.481,3.158-9.123,11.308Z" transform="translate(-3129.322 -2990.778)"/><path class="a" d="M231.184,235.525V219.442h3.125a4.178,4.178,0,0,1,4.052,4.321v11.762h-1.6V224.294s.4-3.121-2.524-3.318h-1.392v14.548Z" transform="translate(-3127.545 -2988.973)"/><path class="a" d="M242.559,219.076V231.5s-.329,4.255,6.1,4.118v-1.592s-4.709.594-4.51-3.326v-7.967h4.312v-1.6h-4.241v-2.055Z" transform="translate(-3126.635 -2989.002)"/><path class="a" d="M253.055,226.9l1.258,1.064,6.578-7.77s-3.888-2.555-7.206.531a8.475,8.475,0,0,0-2.927,5.845s-.451,4.915,2.662,7.633a6.151,6.151,0,0,0,6.14,1.131v-1.321a5.541,5.541,0,0,1-6.011-2.1,8.381,8.381,0,0,1-.234-8.135s1.8-3.622,4.912-3.026Z" transform="translate(-3125.981 -2988.992)"/><path class="a" d="M263.093,219.015V230.9s-.47,4.917,6.309,4.586v-1.458s-4.782.468-4.58-3.326V222.6h4.247v-1.588h-4.247v-2Z" transform="translate(-3124.993 -2989.007)"/><path class="a" d="M281.916,219.136v11.888s-.137,4.258,4.182,4.318h2.992V219.136h-1.667v14.555H286.3a2.548,2.548,0,0,1-2.73-2.73V219.136Z" transform="translate(-3123.487 -2988.997)"/><path class="a" d="M276.6,219.2l.2,1.46s-5.547,1.363.376,6.464c0,0,4.64,4.2,1.005,7.76,0,0-1.877,1.814-5.432.063v-1.738s4.016,2.765,5.149-.987c0,0,.627-2-2.508-4.7,0,0-3.872-3.119-2.212-6.109A4.115,4.115,0,0,1,276.6,219.2Z" transform="translate(-3124.22 -2988.992)"/><path class="a" d="M220.718,226.9l1.264,1.064,6.567-7.77s-3.881-2.555-7.2.531a8.47,8.47,0,0,0-2.927,5.845s-.446,4.915,2.66,7.633a6.158,6.158,0,0,0,6.144,1.131v-1.321a5.547,5.547,0,0,1-6.014-2.1,8.373,8.373,0,0,1-.226-8.135s1.793-3.622,4.912-3.026Z" transform="translate(-3128.567 -2988.992)"/><path class="a" d="M304.646,221.033V219.71a6.153,6.153,0,0,0-6.139,1.128c-2.267,1.98-2.642,5.118-2.679,6.682h0c.038,1.564.413,4.7,2.679,6.68,0,0,2.79,2.531,6.139,1.131v-1.321a5.541,5.541,0,0,1-6.011-2.1,8.7,8.7,0,0,1,0-8.78A5.537,5.537,0,0,1,304.646,221.033Z" transform="translate(-3122.375 -2988.985)"/><path class="a" d="M307.417,235.525V219.442h3.125a4.178,4.178,0,0,1,4.052,4.321v11.762H313V224.294s.4-3.121-2.522-3.318h-1.4v14.548Z" transform="translate(-3121.448 -2988.973)"/><rect class="a" width="4.245" height="1.588" transform="translate(-2812.535 -2762.322)"/><path class="a" d="M321.887,227.344l3.875,7.57H323.93l-3.439-6.817Z" transform="translate(-3120.402 -2988.341)"/><path class="a" d="M335.334,223.763a4.178,4.178,0,0,0-4.052-4.321h-3.124V235.49h3.124a4.179,4.179,0,0,0,4.052-4.325Zm-1.6,6.872s.147,3.244-2.523,3.322h-1.4v-12.98h1.4c2.67.075,2.523,3.318,2.523,3.318v6.341" transform="translate(-3119.789 -2988.973)"/><path class="a" d="M324.986,224.305c0,4.263-3.275,4.857-4.11,4.857h-1.95l.211-1.536h1.672c2.773-.091,2.589-3.321,2.589-3.321s.185-3.236-2.589-3.328h-1.4v14.548h-1.66V219.442h3.124C321.8,219.442,324.986,219.921,324.986,224.305Z" transform="translate(-3120.621 -2988.973)"/></g></svg>